# xmcd
#
# Track frame offsets:
#	150
#	18587
#	37019
#	62543
#	80425
#	104489
#	123918
#	151277
#	176579
#	195832
#
# Disc length: 2886 seconds
#
# Revision: 4047303069
# Processed by: cddbd v1.5.2PL0 Copyright (c) Steve Scherf et al.
# Submitted via: EZCDAudioConverter 8.0.2.1
#
DISCID=770b440a
DTITLE=Hài Vân Sơn - Nhạc Hài Hước Collection 1
DYEAR=2002
DGENRE=World Pop
TTITLE0=Hoài Linh - Lí gái hư
TTITLE1=Vân Sơn - Hội ca cầm
TTITLE2=Hoài Linh - Lý nói láo
TTITLE3=Vân Sơn - Nàng Karaoke
TTITLE4=Hoài Linh - Tình bạn
TTITLE5=Vân Sơn - Soi gương
TTITLE6=Hoài Linh - Ngày xuân vui cưới
TTITLE7=Vân Sơn - Mua nhà trả góp
TTITLE8=Hoài Linh - Năm ngón tay
TTITLE9=Vân Sơn - Tết tết tết
EXTD=
EXTT0=
EXTT1=
EXTT2=
EXTT3=
EXTT4=
EXTT5=
EXTT6=
EXTT7=
EXTT8=
EXTT9=
PLAYORDER=
